<svg width="53" height="52" fill="none" xmlns="http://www.w3.org/2000/svg"><path d="M48.246 14c0-1.105.89-2 1.989-2 1.098 0 1.989.895 1.989 2s-.89 2-1.99 2a1.994 1.994 0 0 1-1.988-2ZM48.246 2c0-1.105.89-2 1.989-2 1.098 0 1.989.895 1.989 2s-.89 2-1.99 2a1.994 1.994 0 0 1-1.988-2ZM36.313 38c0-1.105.89-2 1.989-2 1.098 0 1.989.895 1.989 2s-.89 2-1.99 2a1.994 1.994 0 0 1-1.988-2ZM36.313 26c0-1.105.89-2 1.989-2 1.098 0 1.989.895 1.989 2s-.89 2-1.99 2a1.994 1.994 0 0 1-1.988-2ZM36.313 14c0-1.105.89-2 1.989-2 1.098 0 1.989.895 1.989 2s-.89 2-1.99 2a1.994 1.994 0 0 1-1.988-2ZM36.313 2c0-1.105.89-2 1.989-2C39.4 0 40.29.895 40.29 2s-.89 2-1.99 2a1.994 1.994 0 0 1-1.988-2ZM24.38 38c0-1.105.89-2 1.99-2 1.098 0 1.988.895 1.988 2s-.89 2-1.989 2a1.994 1.994 0 0 1-1.989-2ZM24.38 26c0-1.105.89-2 1.99-2 1.098 0 1.988.895 1.988 2s-.89 2-1.989 2a1.994 1.994 0 0 1-1.989-2ZM24.38 14c0-1.105.89-2 1.99-2 1.098 0 1.988.895 1.988 2s-.89 2-1.989 2a1.994 1.994 0 0 1-1.989-2ZM24.38 2c0-1.105.89-2 1.99-2 1.098 0 1.988.895 1.988 2s-.89 2-1.989 2a1.994 1.994 0 0 1-1.989-2ZM12.447 50c0-1.105.89-2 1.99-2 1.098 0 1.988.895 1.988 2s-.89 2-1.989 2a1.994 1.994 0 0 1-1.989-2ZM12.447 38c0-1.105.89-2 1.99-2 1.098 0 1.988.895 1.988 2s-.89 2-1.989 2a1.994 1.994 0 0 1-1.989-2ZM12.447 26c0-1.105.89-2 1.99-2 1.098 0 1.988.895 1.988 2s-.89 2-1.989 2a1.994 1.994 0 0 1-1.989-2ZM12.447 14c0-1.105.89-2 1.99-2 1.098 0 1.988.895 1.988 2s-.89 2-1.989 2a1.994 1.994 0 0 1-1.989-2ZM12.447 2c0-1.105.89-2 1.99-2 1.098 0 1.988.895 1.988 2s-.89 2-1.989 2a1.994 1.994 0 0 1-1.989-2ZM.514 50c0-1.105.89-2 1.99-2 1.098 0 1.988.895 1.988 2s-.89 2-1.989 2a1.994 1.994 0 0 1-1.989-2ZM.514 38c0-1.105.89-2 1.99-2 1.098 0 1.988.895 1.988 2s-.89 2-1.989 2a1.994 1.994 0 0 1-1.989-2ZM.514 26c0-1.105.89-2 1.99-2 1.098 0 1.988.895 1.988 2s-.89 2-1.989 2a1.994 1.994 0 0 1-1.989-2ZM.514 14c0-1.105.89-2 1.99-2 1.098 0 1.988.895 1.988 2s-.89 2-1.989 2a1.994 1.994 0 0 1-1.989-2ZM.514 2c0-1.105.89-2 1.99-2 1.098 0 1.988.895 1.988 2s-.89 2-1.989 2A1.994 1.994 0 0 1 .514 2Z" fill="#E6A40B"/></svg>