<svg width="53" height="52" fill="none" xmlns="http://www.w3.org/2000/svg"><path d="M4.654 38c0 1.105-.89 2-1.989 2a1.994 1.994 0 0 1-1.989-2c0-1.105.89-2 1.99-2 1.097 0 1.988.895 1.988 2ZM4.654 50c0 1.105-.89 2-1.989 2a1.994 1.994 0 0 1-1.989-2c0-1.105.89-2 1.99-2 1.097 0 1.988.895 1.988 2ZM16.587 14c0 1.105-.89 2-1.989 2a1.994 1.994 0 0 1-1.989-2c0-1.105.89-2 1.989-2 1.098 0 1.989.895 1.989 2ZM16.587 26c0 1.105-.89 2-1.989 2a1.994 1.994 0 0 1-1.989-2c0-1.105.89-2 1.989-2 1.098 0 1.989.895 1.989 2ZM16.587 38c0 1.105-.89 2-1.989 2a1.994 1.994 0 0 1-1.989-2c0-1.105.89-2 1.989-2 1.098 0 1.989.895 1.989 2ZM16.587 50c0 1.105-.89 2-1.989 2a1.994 1.994 0 0 1-1.989-2c0-1.105.89-2 1.989-2 1.098 0 1.989.895 1.989 2ZM28.52 14c0 1.105-.89 2-1.99 2a1.994 1.994 0 0 1-1.988-2c0-1.105.89-2 1.989-2 1.098 0 1.989.895 1.989 2ZM28.52 26c0 1.105-.89 2-1.99 2a1.994 1.994 0 0 1-1.988-2c0-1.105.89-2 1.989-2 1.098 0 1.989.895 1.989 2ZM28.52 38c0 1.105-.89 2-1.99 2a1.994 1.994 0 0 1-1.988-2c0-1.105.89-2 1.989-2 1.098 0 1.989.895 1.989 2ZM28.52 50c0 1.105-.89 2-1.99 2a1.994 1.994 0 0 1-1.988-2c0-1.105.89-2 1.989-2 1.098 0 1.989.895 1.989 2ZM40.453 2c0 1.105-.89 2-1.99 2a1.994 1.994 0 0 1-1.988-2c0-1.105.89-2 1.989-2 1.098 0 1.989.895 1.989 2ZM40.453 14c0 1.105-.89 2-1.99 2a1.994 1.994 0 0 1-1.988-2c0-1.105.89-2 1.989-2 1.098 0 1.989.895 1.989 2ZM40.453 26c0 1.105-.89 2-1.99 2a1.994 1.994 0 0 1-1.988-2c0-1.105.89-2 1.989-2 1.098 0 1.989.895 1.989 2ZM40.453 38c0 1.105-.89 2-1.99 2a1.994 1.994 0 0 1-1.988-2c0-1.105.89-2 1.989-2 1.098 0 1.989.895 1.989 2ZM40.453 50c0 1.105-.89 2-1.99 2a1.994 1.994 0 0 1-1.988-2c0-1.105.89-2 1.989-2 1.098 0 1.989.895 1.989 2ZM52.385 2c0 1.105-.89 2-1.988 2a1.994 1.994 0 0 1-1.99-2c0-1.105.891-2 1.99-2 1.098 0 1.988.895 1.988 2ZM52.385 14c0 1.105-.89 2-1.988 2a1.994 1.994 0 0 1-1.99-2c0-1.105.891-2 1.99-2 1.098 0 1.988.895 1.988 2ZM52.385 26c0 1.105-.89 2-1.988 2a1.994 1.994 0 0 1-1.99-2c0-1.105.891-2 1.99-2 1.098 0 1.988.895 1.988 2ZM52.385 38c0 1.105-.89 2-1.988 2a1.994 1.994 0 0 1-1.99-2c0-1.105.891-2 1.99-2 1.098 0 1.988.895 1.988 2ZM52.385 50c0 1.105-.89 2-1.988 2a1.994 1.994 0 0 1-1.99-2c0-1.105.891-2 1.99-2 1.098 0 1.988.895 1.988 2Z" fill="#E6A40B"/></svg>