<svg width="32" height="32" viewBox="0 0 32 32" fill="none" xmlns="http://www.w3.org/2000/svg">
<g clip-path="url(#clip0_125_785)">
<circle cx="16" cy="16" r="16" fill="white"/>
<path d="M23.375 12.75H22.4525L20.54 7.485C20.3817 7.05087 20.094 6.67573 19.7158 6.41019C19.3376 6.14465 18.8871 6.00149 18.425 6H16.625C16.0062 6 15.5 6.50625 15.5 7.125C15.5 7.74375 16.0062 8.25 16.625 8.25H18.425L20.0675 12.75H14.6562L14.2513 11.625H14.3525C14.9712 11.625 15.4775 11.1188 15.4775 10.5C15.4775 9.88125 14.9712 9.375 14.3525 9.375H11C10.3812 9.375 9.875 9.88125 9.875 10.5C9.875 11.1188 10.3812 11.625 11 11.625H11.8438L13.8912 17.25H13.1375C12.6425 14.7413 10.5387 12.885 7.90625 12.7613C4.75625 12.6038 2 15.225 2 18.375C2 21.525 4.475 24 7.625 24C10.3925 24 12.6312 22.0987 13.1375 19.5H17.8625C18.3575 22.0087 20.4613 23.865 23.0938 23.9888C26.2437 24.135 29 21.525 29 18.3637C29 15.225 26.525 12.75 23.375 12.75ZM8.75 19.5H10.7975C10.325 20.8837 8.9975 21.84 7.4 21.7387C5.72375 21.6375 4.32875 20.22 4.25 18.5325C4.17125 16.5638 5.67875 15 7.625 15C9.12125 15 10.3475 15.9338 10.7975 17.25H8.75C8.13125 17.25 7.625 17.7562 7.625 18.375C7.625 18.9938 8.13125 19.5 8.75 19.5ZM17.8625 17.25H16.2875L15.4663 15H18.875C18.38 15.6525 18.02 16.4062 17.8625 17.25ZM23.24 21.75C21.5075 21.6825 20.045 20.2088 20 18.465C19.9775 17.385 20.4387 16.44 21.1812 15.81L21.8787 17.7225C22.0925 18.3075 22.7338 18.6113 23.3188 18.3975C23.9038 18.1838 24.2075 17.5425 23.9937 16.9575L23.285 15.0113L23.2962 15C23.7473 14.9846 24.1968 15.0608 24.6176 15.224C25.0384 15.3871 25.4217 15.6339 25.7445 15.9493C26.0673 16.2647 26.3228 16.6423 26.4956 17.0592C26.6684 17.4761 26.755 17.9237 26.75 18.375C26.75 20.31 25.1975 21.8175 23.24 21.75Z" fill="url(#paint0_linear_125_785)"/>
</g>
<defs>
<linearGradient id="paint0_linear_125_785" x1="15.5" y1="6" x2="15.5" y2="24" gradientUnits="userSpaceOnUse">
<stop stop-color="#FFBC0D"/>
<stop offset="1" stop-color="#E59317"/>
</linearGradient>
<clipPath id="clip0_125_785">
<rect width="32" height="32" fill="white"/>
</clipPath>
</defs>
</svg>
